<svg width="1920" height="1080" viewBox="0 0 1920 1080" fill="none" xmlns="http://www.w3.org/2000/svg">
  <!-- Space Background Gradient -->
  <defs>
    <radialGradient id="spaceGradient" cx="50%" cy="30%" r="70%">
      <stop offset="0%" style="stop-color:#1a1a2e;stop-opacity:1" />
      <stop offset="40%" style="stop-color:#16213e;stop-opacity:1" />
      <stop offset="100%" style="stop-color:#0f0f23;stop-opacity:1" />
    </radialGradient>
    
    <!-- Nebula Gradient -->
    <radialGradient id="nebula1" cx="20%" cy="40%" r="30%">
      <stop offset="0%" style="stop-color:#ff6b6b;stop-opacity:0.3" />
      <stop offset="50%" style="stop-color:#4ecdc4;stop-opacity:0.2" />
      <stop offset="100%" style="stop-color:#45b7d1;stop-opacity:0.1" />
    </radialGradient>
    
    <radialGradient id="nebula2" cx="80%" cy="60%" r="25%">
      <stop offset="0%" style="stop-color:#ffd93d;stop-opacity:0.2" />
      <stop offset="50%" style="stop-color:#ff9ff3;stop-opacity:0.15" />
      <stop offset="100%" style="stop-color:#54a0ff;stop-opacity:0.1" />
    </radialGradient>
    
    <!-- Planet Gradient -->
    <radialGradient id="planetGradient" cx="30%" cy="30%" r="70%">
      <stop offset="0%" style="stop-color:#ff7675;stop-opacity:1" />
      <stop offset="70%" style="stop-color:#fd79a8;stop-opacity:1" />
      <stop offset="100%" style="stop-color:#6c5ce7;stop-opacity:1" />
    </radialGradient>
  </defs>
  
  <!-- Main Space Background -->
  <rect width="1920" height="1080" fill="url(#spaceGradient)"/>
  
  <!-- Nebula Effects -->
  <ellipse cx="400" cy="300" rx="300" ry="200" fill="url(#nebula1)" opacity="0.6"/>
  <ellipse cx="1500" cy="600" rx="250" ry="180" fill="url(#nebula2)" opacity="0.5"/>
  
  <!-- Stars -->
  <circle cx="150" cy="100" r="2" fill="#ffffff" opacity="0.8"/>
  <circle cx="300" cy="150" r="1.5" fill="#ffffff" opacity="0.9"/>
  <circle cx="500" cy="80" r="1" fill="#ffffff" opacity="0.7"/>
  <circle cx="700" cy="200" r="2.5" fill="#ffffff" opacity="0.8"/>
  <circle cx="900" cy="120" r="1" fill="#ffffff" opacity="0.6"/>
  <circle cx="1100" cy="180" r="1.5" fill="#ffffff" opacity="0.9"/>
  <circle cx="1300" cy="90" r="2" fill="#ffffff" opacity="0.7"/>
  <circle cx="1500" cy="160" r="1" fill="#ffffff" opacity="0.8"/>
  <circle cx="1700" cy="110" r="1.5" fill="#ffffff" opacity="0.6"/>
  <circle cx="1800" cy="200" r="2" fill="#ffffff" opacity="0.9"/>
  
  <!-- More scattered stars -->
  <circle cx="250" cy="400" r="1" fill="#ffffff" opacity="0.5"/>
  <circle cx="450" cy="350" r="1.5" fill="#ffffff" opacity="0.7"/>
  <circle cx="650" cy="450" r="1" fill="#ffffff" opacity="0.6"/>
  <circle cx="850" cy="380" r="2" fill="#ffffff" opacity="0.8"/>
  <circle cx="1050" cy="420" r="1" fill="#ffffff" opacity="0.5"/>
  <circle cx="1250" cy="360" r="1.5" fill="#ffffff" opacity="0.7"/>
  <circle cx="1450" cy="440" r="1" fill="#ffffff" opacity="0.6"/>
  <circle cx="1650" cy="390" r="2" fill="#ffffff" opacity="0.8"/>
  
  <!-- Bottom area stars -->
  <circle cx="200" cy="700" r="1.5" fill="#ffffff" opacity="0.6"/>
  <circle cx="400" cy="750" r="1" fill="#ffffff" opacity="0.7"/>
  <circle cx="600" cy="680" r="2" fill="#ffffff" opacity="0.8"/>
  <circle cx="800" cy="720" r="1" fill="#ffffff" opacity="0.5"/>
  <circle cx="1000" cy="780" r="1.5" fill="#ffffff" opacity="0.7"/>
  <circle cx="1200" cy="650" r="1" fill="#ffffff" opacity="0.6"/>
  <circle cx="1400" cy="730" r="2" fill="#ffffff" opacity="0.8"/>
  <circle cx="1600" cy="690" r="1.5" fill="#ffffff" opacity="0.7"/>
  <circle cx="1800" cy="760" r="1" fill="#ffffff" opacity="0.6"/>
  
  <!-- Distant Planet -->
  <circle cx="1600" cy="200" r="80" fill="url(#planetGradient)" opacity="0.7"/>
  <ellipse cx="1600" cy="200" rx="90" ry="15" fill="#6c5ce7" opacity="0.3" transform="rotate(-15 1600 200)"/>
  
  <!-- Astronaut Figure -->
  <g transform="translate(800, 400)">
    <!-- Astronaut Body -->
    <ellipse cx="0" cy="20" rx="45" ry="60" fill="#e8e8e8" stroke="#d0d0d0" stroke-width="2"/>
    
    <!-- Chest Panel -->
    <rect x="-25" y="-10" width="50" height="40" rx="5" fill="#4a90e2" opacity="0.8"/>
    <rect x="-20" y="-5" width="40" height="8" rx="2" fill="#2c5aa0"/>
    <rect x="-20" y="5" width="40" height="8" rx="2" fill="#2c5aa0"/>
    <rect x="-20" y="15" width="40" height="8" rx="2" fill="#2c5aa0"/>
    
    <!-- Helmet -->
    <circle cx="0" cy="-40" r="35" fill="#f0f0f0" stroke="#d0d0d0" stroke-width="3"/>
    <circle cx="0" cy="-40" r="30" fill="rgba(135, 206, 250, 0.3)"/>
    
    <!-- Helmet Reflection -->
    <ellipse cx="-10" cy="-50" rx="15" ry="20" fill="#ffffff" opacity="0.4"/>
    
    <!-- Arms -->
    <ellipse cx="-55" cy="0" rx="20" ry="45" fill="#e8e8e8" stroke="#d0d0d0" stroke-width="2" transform="rotate(-20 -55 0)"/>
    <ellipse cx="55" cy="0" rx="20" ry="45" fill="#e8e8e8" stroke="#d0d0d0" stroke-width="2" transform="rotate(20 55 0)"/>
    
    <!-- Gloves -->
    <circle cx="-65" cy="35" r="18" fill="#4a90e2"/>
    <circle cx="65" cy="35" r="18" fill="#4a90e2"/>
    
    <!-- Legs -->
    <ellipse cx="-25" cy="90" rx="18" ry="50" fill="#e8e8e8" stroke="#d0d0d0" stroke-width="2"/>
    <ellipse cx="25" cy="90" rx="18" ry="50" fill="#e8e8e8" stroke="#d0d0d0" stroke-width="2"/>
    
    <!-- Boots -->
    <ellipse cx="-25" cy="145" rx="22" ry="15" fill="#2c5aa0"/>
    <ellipse cx="25" cy="145" rx="22" ry="15" fill="#2c5aa0"/>
    
    <!-- Jetpack -->
    <rect x="-30" y="10" width="60" height="80" rx="10" fill="#2c5aa0" transform="translate(0, 20)"/>
    <rect x="-25" y="15" width="50" height="70" rx="8" fill="#4a90e2" transform="translate(0, 20)"/>
    
    <!-- Jetpack Flames -->
    <ellipse cx="-15" cy="110" rx="8" ry="25" fill="#ff6b6b" opacity="0.8"/>
    <ellipse cx="15" cy="110" rx="8" ry="25" fill="#ff6b6b" opacity="0.8"/>
    <ellipse cx="-15" cy="115" rx="5" ry="15" fill="#ffd93d" opacity="0.9"/>
    <ellipse cx="15" cy="115" rx="5" ry="15" fill="#ffd93d" opacity="0.9"/>
  </g>
  
  <!-- Floating Rocks/Asteroids -->
  <ellipse cx="300" cy="600" rx="25" ry="35" fill="#8b7355" opacity="0.6" transform="rotate(45 300 600)"/>
  <ellipse cx="1400" cy="500" rx="30" ry="20" fill="#a0956b" opacity="0.5" transform="rotate(-30 1400 500)"/>
  <ellipse cx="1700" cy="800" rx="20" ry="40" fill="#7a6b47" opacity="0.7" transform="rotate(60 1700 800)"/>
  
  <!-- Cosmic Dust/Particles -->
  <circle cx="100" cy="300" r="3" fill="#ffffff" opacity="0.3"/>
  <circle cx="200" cy="250" r="2" fill="#ffffff" opacity="0.4"/>
  <circle cx="350" cy="320" r="4" fill="#ffffff" opacity="0.2"/>
  <circle cx="1200" cy="300" r="3" fill="#ffffff" opacity="0.3"/>
  <circle cx="1350" cy="280" r="2" fill="#ffffff" opacity="0.4"/>
  <circle cx="1500" cy="350" r="4" fill="#ffffff" opacity="0.2"/>
  
  <!-- Additional atmospheric effects -->
  <ellipse cx="960" cy="540" rx="800" ry="400" fill="url(#nebula1)" opacity="0.1"/>
</svg>